<svg xmlns="http://www.w3.org/2000/svg" width="150" height="150" viewBox="0 0 150 150"><rect width="100%" height="100%" fill="#DDDDDD"/><path fill="#999999" d="M36.055 76.28q.12 0 .21.1l.59.63q-.49.6-1.2.92-.7.32-1.69.32-.89 0-1.59-.3-.71-.31-1.21-.85-.5-.53-.77-1.28t-.27-1.64.29-1.64q.29-.74.81-1.28t1.24-.84 1.59-.3 1.54.29q.68.28 1.15.74l-.49.69q-.05.07-.12.12t-.19.05q-.08 0-.17-.05t-.19-.12-.24-.15-.32-.15-.42-.11q-.24-.05-.55-.05-.54 0-.98.19t-.76.55-.5.88q-.17.52-.17 1.18 0 .67.19 1.2.19.52.51.88.33.35.77.54t.94.19q.3 0 .55-.03.24-.03.45-.1.21-.08.39-.19t.37-.28q.05-.04.11-.08.06-.03.13-.03m4.1-3.85q.62 0 1.14.2.51.21.88.58.36.37.56.91t.2 1.21-.2 1.21-.56.92q-.37.38-.88.58-.52.2-1.14.2-.64 0-1.15-.2-.52-.2-.89-.58-.36-.38-.56-.92t-.2-1.21.2-1.21.56-.91q.37-.37.89-.58.51-.2 1.15-.2m0 4.77q.7 0 1.04-.48.34-.47.34-1.38t-.34-1.39-1.04-.48q-.72 0-1.06.48-.35.48-.35 1.39t.35 1.38q.34.48 1.06.48m5.18-3.03v2.53q.23.28.5.39.27.12.59.12.31 0 .56-.12.24-.11.42-.35.17-.24.26-.6.1-.36.1-.85t-.08-.83q-.08-.35-.23-.56-.15-.22-.36-.32-.21-.09-.48-.09-.43 0-.72.17-.3.18-.56.51m-.19-1.41.11.53q.35-.39.79-.64.44-.24 1.04-.24.46 0 .84.2.38.19.66.55.28.37.43.91.15.53.15 1.22 0 .64-.17 1.18-.17.53-.49.93-.31.4-.76.62t-1.01.22q-.47 0-.8-.14-.34-.15-.6-.41V80h-1.36v-7.48h.83q.26 0 .34.24m6.15 1.93h2.56q0-.26-.07-.5-.08-.23-.23-.41-.14-.17-.37-.28-.23-.1-.53-.1-.59 0-.93.34-.34.33-.43.95m3.46.82h-3.49q.03.43.15.75.13.32.32.52.2.21.47.31.28.1.61.1t.57-.07q.23-.08.41-.18.18-.09.32-.17.13-.07.26-.07.17 0 .25.12l.39.5q-.22.26-.5.44t-.59.29q-.31.1-.62.15-.32.04-.61.04-.59 0-1.1-.19-.51-.2-.88-.58t-.59-.95q-.21-.56-.21-1.3 0-.58.18-1.09.19-.51.54-.88.35-.38.85-.6.51-.22 1.14-.22.53 0 .98.17t.78.5q.32.32.51.8.18.48.18 1.09 0 .3-.06.41-.07.11-.26.11m2.54-2.65.08.64q.27-.51.63-.8t.86-.29q.39 0 .62.17l-.08 1.02q-.03.1-.08.14-.06.04-.14.04-.09 0-.25-.03-.16-.02-.32-.02-.22 0-.4.06-.17.07-.31.19-.14.13-.25.3-.11.18-.2.4v3.48h-1.36v-5.64h.8q.21 0 .29.07.08.08.11.27m4.78 5.39q-.73 0-1.13-.42-.39-.41-.39-1.14v-3.16h-.58q-.11 0-.18-.07-.08-.07-.08-.21v-.54l.91-.15.28-1.54q.03-.11.11-.17.07-.06.19-.06h.71v1.78h1.51v.96h-1.51v3.06q0 .27.13.41.13.15.35.15.13 0 .21-.03.09-.03.15-.06.07-.03.12-.06t.09-.03q.07 0 .1.03.04.03.09.09l.4.66q-.29.25-.68.37-.38.13-.8.13m2.26-5.73h1.36v5.64h-1.36zm1.55-1.65q0 .18-.07.33-.07.16-.19.27-.12.12-.28.19t-.34.07-.33-.07q-.16-.07-.28-.19-.11-.11-.18-.27-.07-.15-.07-.33t.07-.34.18-.27q.12-.12.28-.19.15-.07.33-.07t.34.07.28.19q.12.11.19.27t.07.34m2.38 1.89.09.45q.17-.17.36-.32.19-.14.4-.24.21-.11.45-.16.25-.06.53-.06.46 0 .82.16.36.15.6.44.24.28.36.67.13.4.13.87v3.59h-1.36v-3.59q0-.52-.24-.8t-.72-.28q-.35 0-.66.15-.31.16-.58.44v4.08h-1.36v-5.64h.83q.26 0 .35.24m8 3.94v-.95q-.58.03-.99.1-.4.08-.64.19-.24.12-.35.27-.1.16-.1.34 0 .35.21.51.21.15.55.15.42 0 .73-.15.3-.15.59-.46m-2.87-2.96-.24-.44q.97-.89 2.34-.89.5 0 .89.16.39.17.66.46.27.28.41.69.14.4.14.88v3.56h-.62q-.19 0-.29-.06-.11-.06-.17-.23l-.12-.41q-.21.19-.42.34-.2.15-.42.24-.22.1-.47.16-.25.05-.55.05-.36 0-.66-.1-.31-.09-.53-.29-.22-.19-.34-.48-.12-.28-.12-.66 0-.22.07-.43t.24-.4q.16-.19.42-.36t.63-.3q.38-.13.88-.21t1.14-.09v-.33q0-.57-.24-.84t-.7-.27q-.33 0-.54.07-.22.08-.39.18l-.3.17q-.13.08-.3.08-.14 0-.24-.08-.1-.07-.16-.17m10.03 1.42h2.53l-.96-2.65q-.07-.17-.15-.42-.08-.24-.16-.52-.07.28-.14.53-.08.24-.15.42zm2.02-4.95 3.13 7.95h-1.15q-.19 0-.31-.1-.12-.09-.18-.24l-.6-1.62h-3.29l-.59 1.62q-.05.13-.17.24-.13.1-.32.1h-1.15l3.13-7.95zm7.49 2.92-.31.49q-.05.08-.11.12-.07.04-.16.04-.1 0-.21-.06l-.26-.12q-.15-.07-.34-.13-.19-.05-.45-.05-.4 0-.63.17t-.23.44q0 .19.12.31t.32.22q.19.09.44.17.25.07.5.16.26.09.5.2.25.11.45.28.19.18.31.42t.12.58q0 .41-.15.75-.14.35-.43.6-.28.25-.71.39-.42.14-.97.14-.29 0-.57-.05-.27-.06-.53-.15-.25-.09-.47-.22t-.38-.27l.31-.52q.06-.1.14-.14.09-.05.21-.05.13 0 .24.07t.26.15.35.16q.2.07.51.07.24 0 .42-.06.17-.06.28-.15.11-.1.17-.22.05-.12.05-.26 0-.19-.12-.32t-.31-.22q-.2-.09-.45-.17-.25-.07-.51-.16t-.51-.21q-.25-.11-.45-.3-.19-.18-.31-.44-.12-.27-.12-.64 0-.35.14-.66t.4-.55q.27-.23.67-.37t.92-.14q.58 0 1.06.19t.8.51m4.83 0-.3.49q-.06.08-.12.12t-.15.04q-.1 0-.22-.06l-.26-.12q-.15-.07-.34-.13-.19-.05-.44-.05-.41 0-.63.17-.23.17-.23.44 0 .19.12.31.11.12.31.22.2.09.44.17.25.07.51.16.25.09.5.2t.44.28q.2.18.32.42.11.24.11.58 0 .41-.14.75-.15.35-.43.6-.29.25-.71.39t-.97.14q-.29 0-.57-.05-.28-.06-.53-.15-.26-.09-.48-.22-.21-.13-.38-.27l.31-.52q.06-.1.15-.14.08-.05.21-.05.12 0 .24.07.11.07.26.15t.35.16q.2.07.5.07.25 0 .42-.06t.29-.15q.11-.1.16-.22t.05-.26q0-.19-.12-.32-.11-.13-.31-.22-.19-.09-.44-.17-.25-.07-.52-.16-.26-.09-.51-.21-.25-.11-.44-.3-.2-.18-.32-.44-.11-.27-.11-.64 0-.35.13-.66.14-.31.41-.55.26-.23.66-.37t.92-.14q.59 0 1.07.19.47.19.79.51m2.16 1.56h2.56q0-.26-.07-.5-.08-.23-.22-.41-.15-.17-.38-.28-.23-.1-.53-.1-.59 0-.93.34-.34.33-.43.95m3.46.82h-3.49q.03.43.16.75.12.32.31.52.2.21.47.31.28.1.61.1t.57-.07q.24-.08.41-.18.18-.09.32-.17.13-.07.26-.07.17 0 .25.12l.39.5q-.22.26-.5.44t-.59.29q-.3.1-.62.15-.32.04-.61.04-.59 0-1.1-.19-.5-.2-.88-.58-.37-.38-.59-.95-.21-.56-.21-1.3 0-.58.19-1.09.18-.51.53-.88.35-.38.85-.6.51-.22 1.14-.22.53 0 .98.17.46.17.78.5.32.32.51.8.18.48.18 1.09 0 .3-.06.41-.07.11-.26.11m2.52-2.75.09.45q.17-.17.36-.32.19-.14.4-.24.21-.11.46-.16.24-.06.52-.06.47 0 .82.16.36.15.6.44.24.28.36.67.13.4.13.87v3.59h-1.36v-3.59q0-.52-.24-.8-.23-.28-.72-.28-.35 0-.66.15-.31.16-.58.44v4.08h-1.36v-5.64h.83q.27 0 .35.24m6.91 5.49q-.74 0-1.13-.42-.4-.41-.4-1.14v-3.16h-.58q-.11 0-.18-.07-.08-.07-.08-.21v-.54l.91-.15.28-1.54q.03-.11.11-.17t.2-.06h.7v1.78h1.51v.96h-1.51v3.06q0 .27.13.41.13.15.35.15.13 0 .22-.03.08-.03.14-.06.07-.03.12-.06t.1-.03q.06 0 .1.03.03.03.08.09l.41.66q-.3.25-.69.37-.38.13-.79.13m3.28-3.56h2.56q0-.26-.07-.5-.08-.23-.22-.41-.15-.17-.38-.28-.23-.1-.53-.1-.59 0-.93.34-.34.33-.43.95m3.46.82h-3.49q.03.43.16.75.12.32.31.52.2.21.47.31.28.1.61.1t.57-.07q.24-.08.41-.18.18-.09.32-.17.13-.07.26-.07.17 0 .25.12l.39.5q-.22.26-.5.44t-.59.29q-.3.1-.62.15-.32.04-.61.04-.59 0-1.1-.19-.5-.2-.88-.58-.37-.38-.59-.95-.21-.56-.21-1.3 0-.58.19-1.09.18-.51.53-.88.35-.38.85-.6.51-.22 1.14-.22.53 0 .98.17.46.17.78.5.32.32.51.8.18.48.18 1.09 0 .3-.06.41-.07.11-.26.11"/></svg>